{
  "accessors": [
    {
      "bufferView": 2,
      "componentType": 5126,
      "count": 6279,
      "max": [
        10.16529655456543,
        7.302082538604736,
        0.266178697347641
      ],
      "min": [
        -10.140140533447266,
        -7.313913345336914,
        -0.6456026434898376
      ],
      "type": "VEC3"
    },
    {
      "bufferView": 2,
      "byteOffset": 75348,
      "componentType": 5126,
      "count": 6279,
      "max": [
        1.0,
        1.0,
        0.9998505711555481
      ],
      "min": [
        -1.0,
        -0.9998509883880615,
        -0.9999997615814209
      ],
      "type": "VEC3"
    },
    {
      "bufferView": 1,
      "componentType": 5126,
      "count": 6279,
      "max": [
        0.42098864912986755,
        0.5186738967895508
      ],
      "min": [
        0.0,
        0.0
      ],
      "type": "VEC2"
    },
    {
      "bufferView": 0,
      "componentType": 5125,
      "count": 17100,
      "type": "SCALAR"
    },
    {
      "bufferView": 2,
      "byteOffset": 150696,
      "componentType": 5126,
      "count": 6378,
      "max": [
        10.108919143676758,
        7.600326061248779,
        0.620672345161438
      ],
      "min": [
        -10.083763122558594,
        -7.300775051116943,
        -0.31019747257232666
      ],
      "type": "VEC3"
    },
    {
      "bufferView": 2,
      "byteOffset": 227232,
      "componentType": 5126,
      "count": 6378,
      "max": [
        1.0,
        1.0,
        1.0
      ],
      "min": [
        -1.0,
        -1.0,
        -1.0
      ],
      "type": "VEC3"
    },
    {
      "bufferView": 1,
      "byteOffset": 50232,
      "componentType": 5126,
      "count": 6378,
      "max": [
        0.949345588684082,
        0.8791405558586121
      ],
      "min": [
        0.0,
        0.0
      ],
      "type": "VEC2"
    },
    {
      "bufferView": 0,
      "byteOffset": 68400,
      "componentType": 5125,
      "count": 19038,
      "type": "SCALAR"
    },
    {
      "bufferView": 2,
      "byteOffset": 303768,
      "componentType": 5126,
      "count": 112,
      "max": [
        9.173532485961914,
        5.597584247589111,
        0.22023805975914001
      ],
      "min": [
        -10.133780479431152,
        -2.2099616527557373,
        -0.1863575428724289
      ],
      "type": "VEC3"
    },
    {
      "bufferView": 2,
      "byteOffset": 305112,
      "componentType": 5126,
      "count": 112,
      "max": [
        0.9352957606315613,
        0.9998506307601929,
        0.988666832447052
      ],
      "min": [
        -1.0,
        -0.9998506307601929,
        -0.9886667728424072
      ],
      "type": "VEC3"
    },
    {
      "bufferView": 1,
      "byteOffset": 101256,
      "componentType": 5126,
      "count": 112,
      "max": [
        0.7072951793670654,
        0.7644523978233337
      ],
      "min": [
        0.0,
        0.0
      ],
      "type": "VEC2"
    },
    {
      "bufferView": 0,
      "byteOffset": 144552,
      "componentType": 5125,
      "count": 360,
      "type": "SCALAR"
    },
    {
      "bufferView": 2,
      "byteOffset": 306456,
      "componentType": 5126,
      "count": 20,
      "max": [
        -10.068595886230469,
        -1.6341118812561035,
        0.024000495672225952
      ],
      "min": [
        -10.125791549682617,
        -2.206855535507202,
        -0.037502095103263855
      ],
      "type": "VEC3"
    },
    {
      "bufferView": 2,
      "byteOffset": 306696,
      "componentType": 5126,
      "count": 20,
      "max": [
        0.05899112671613693,
        0.8628957271575928,
        0.9916464686393738
      ],
      "min": [
        -0.9949136972427368,
        -0.8594783544540405,
        -0.9976689219474792
      ],
      "type": "VEC3"
    },
    {
      "bufferView": 1,
      "byteOffset": 102152,
      "componentType": 5126,
      "count": 20,
      "max": [
        0.2955262362957001,
        0.4632633924484253
      ],
      "min": [
        0.2951715886592865,
        0.4597119987010956
      ],
      "type": "VEC2"
    },
    {
      "bufferView": 0,
      "byteOffset": 145992,
      "componentType": 5125,
      "count": 30,
      "type": "SCALAR"
    },
    {
      "bufferView": 2,
      "byteOffset": 306936,
      "componentType": 5126,
      "count": 204,
      "max": [
        0.32034146785736084,
        -2.014380693435669,
        0.12867945432662964
      ],
      "min": [
        -4.974449157714844,
        -6.030712127685547,
        0.05029692500829697
      ],
      "type": "VEC3"
    },
    {
      "bufferView": 2,
      "byteOffset": 309384,
      "componentType": 5126,
      "count": 204,
      "max": [
        1.0,
        0.999850332736969,
        0.9998506307601929
      ],
      "min": [
        -1.0,
        -0.9998496174812317,
        -0.017357539385557175
      ],
      "type": "VEC3"
    },
    {
      "bufferView": 1,
      "byteOffset": 102312,
      "componentType": 5126,
      "count": 204,
      "max": [
        0.3599432110786438,
        0.4609054625034332
      ],
      "min": [
        0.3271119296550751,
        0.4360014796257019
      ],
      "type": "VEC2"
    },
    {
      "bufferView": 0,
      "byteOffset": 146112,
      "componentType": 5125,
      "count": 312,
      "type": "SCALAR"
    },
    {
      "bufferView": 2,
      "byteOffset": 311832,
      "componentType": 5126,
      "count": 322,
      "max": [
        9.620694160461426,
        -0.009802830405533314,
        1.1408370733261108
      ],
      "min": [
        -9.620694160461426,
        -0.019932279363274574,
        0.8476874232292175
      ],
      "type": "VEC3"
    },
    {
      "bufferView": 2,
      "byteOffset": 315696,
      "componentType": 5126,
      "count": 322,
      "max": [
        0.986029326915741,
        0.13941600918769836,
        0.9951592683792114
      ],
      "min": [
        -0.9860350489616394,
        -1.0,
        -0.9951587915420532
      ],
      "type": "VEC3"
    },
    {
      "bufferView": 1,
      "byteOffset": 103944,
      "componentType": 5126,
      "count": 322,
      "max": [
        0.0,
        0.0
      ],
      "min": [
        0.0,
        0.0
      ],
      "type": "VEC2"
    },
    {
      "bufferView": 0,
      "byteOffset": 147360,
      "componentType": 5125,
      "count": 576,
      "type": "SCALAR"
    },
    {
      "bufferView": 2,
      "byteOffset": 319560,
      "componentType": 5126,
      "count": 395,
      "max": [
        10.091934204101563,
        0.5274085402488708,
        14.447467803955078
      ],
      "min": [
        -10.091934204101563,
        -0.11729240417480469,
        -0.01622185669839382
      ],
      "type": "VEC3"
    },
    {
      "bufferView": 2,
      "byteOffset": 324300,
      "componentType": 5126,
      "count": 395,
      "max": [
        1.0,
        0.9998064041137695,
        0.9999762773513794
      ],
      "min": [
        -1.0,
        -0.9999893307685852,
        -0.9999892711639404
      ],
      "type": "VEC3"
    },
    {
      "bufferView": 1,
      "byteOffset": 106520,
      "componentType": 5126,
      "count": 395,
      "max": [
        0.0,
        0.0
      ],
      "min": [
        0.0,
        0.0
      ],
      "type": "VEC2"
    },
    {
      "bufferView": 0,
      "byteOffset": 149664,
      "componentType": 5125,
      "count": 1620,
      "type": "SCALAR"
    },
    {
      "bufferView": 2,
      "byteOffset": 329040,
      "componentType": 5126,
      "count": 6,
      "max": [
        9.170504570007324,
        0.054333336651325226,
        12.784076690673828
      ],
      "min": [
        -9.170504570007324,
        0.03299924358725548,
        1.5792895555496216
      ],
      "type": "VEC3"
    },
    {
      "bufferView": 2,
      "byteOffset": 329112,
      "componentType": 5126,
      "count": 6,
      "max": [
        0.0,
        -0.9999982118606567,
        -0.0019040122861042619
      ],
      "min": [
        0.0,
        -0.9999982714653015,
        -0.0019040125189349055
      ],
      "type": "VEC3"
    },
    {
      "bufferView": 1,
      "byteOffset": 109680,
      "componentType": 5126,
      "count": 6,
      "max": [
        0.9999217987060547,
        0.9970822334289551
      ],
      "min": [
        7.814168930053711e-05,
        0.0023206472396850586
      ],
      "type": "VEC2"
    },
    {
      "bufferView": 0,
      "byteOffset": 156144,
      "componentType": 5125,
      "count": 12,
      "type": "SCALAR"
    }
  ],
  "asset": {
    "extras": {
      "author": "edouard77 (https://sketchfab.com/edouard77)",
      "license": "CC-BY-4.0 (http://creativecommons.org/licenses/by/4.0/)",
      "source": "https://sketchfab.com/3d-models/laptop-d7459b8ceaab4ce09230cee0b85b5e4b",
      "title": "Laptop"
    },
    "generator": "Sketchfab-12.68.0",
    "version": "2.0"
  },
  "bufferViews": [
    {
      "buffer": 0,
      "byteLength": 156192,
      "name": "floatBufferViews",
      "target": 34963
    },
    {
      "buffer": 0,
      "byteLength": 109728,
      "byteOffset": 156192,
      "byteStride": 8,
      "name": "floatBufferViews",
      "target": 34962
    },
    {
      "buffer": 0,
      "byteLength": 329184,
      "byteOffset": 265920,
      "byteStride": 12,
      "name": "floatBufferViews",
      "target": 34962
    }
  ],
  "buffers": [
    {
      "byteLength": 595104,
      "uri": "scene.bin"
    }
  ],
  "images": [
    {
      "uri": "textures/Black_Keys_baseColor.jpeg"
    },
    {
      "uri": "textures/Ecran_baseColor.jpeg"
    }
  ],
  "materials": [
    {
      "doubleSided": true,
      "name": "Black_Keys.002",
      "pbrMetallicRoughness": {
        "baseColorFactor": [
          0.0,
          0.0,
          0.0,
          1.0
        ],
        "metallicFactor": 0.0,
        "roughnessFactor": 0.8308205978495098
      }
    },
    {
      "doubleSided": true,
      "name": "Black_Keys",
      "pbrMetallicRoughness": {
        "baseColorTexture": {
          "index": 0
        },
        "metallicFactor": 0.0,
        "roughnessFactor": 0.8308205978495098
      }
    },
    {
      "doubleSided": true,
      "name": "Black_Keys.001",
      "pbrMetallicRoughness": {
        "baseColorFactor": [
          0.8,
          0.8,
          0.8,
          1.0
        ],
        "metallicFactor": 0.0,
        "roughnessFactor": 0.8308205978495098
      }
    },
    {
      "doubleSided": true,
      "name": "side_slot",
      "pbrMetallicRoughness": {
        "baseColorFactor": [
          0.0481341,
          0.144483,
          0.154769,
          1.0
        ],
        "metallicFactor": 0.0,
        "roughnessFactor": 0.9736203056157211
      }
    },
    {
      "doubleSided": true,
      "name": "Black_Plastic_ROUGH",
      "pbrMetallicRoughness": {
        "baseColorFactor": [
          0.019708368943048015,
          0.019708368943048015,
          0.019708368943048015,
          1.0
        ],
        "metallicFactor": 0.9895198170731707,
        "roughnessFactor": 0.8308205978495098
      }
    },
    {
      "doubleSided": true,
      "name": "Material.002",
      "pbrMetallicRoughness": {
        "baseColorFactor": [
          0.8,
          0.8,
          0.8,
          1.0
        ],
        "metallicFactor": 0.0,
        "roughnessFactor": 0.8308205978495098
      }
    },
    {
      "doubleSided": true,
      "emissiveFactor": [
        1.0,
        1.0,
        1.0
      ],
      "emissiveTexture": {
        "index": 1
      },
      "name": "Ecran",
      "pbrMetallicRoughness": {
        "baseColorTexture": {
          "index": 1
        },
        "metallicFactor": 0.0,
        "roughnessFactor": 0.7809109769979335
      }
    }
  ],
  "meshes": [
    {
      "name": "Laptop_Keyboard_Black Keys.002_0",
      "primitives": [
        {
          "attributes": {
            "NORMAL": 1,
            "POSITION": 0,
            "TEXCOORD_0": 2
          },
          "indices": 3,
          "material": 0,
          "mode": 4
        }
      ]
    },
    {
      "name": "Laptop_Keyboard_Black Keys_0",
      "primitives": [
        {
          "attributes": {
            "NORMAL": 5,
            "POSITION": 4,
            "TEXCOORD_0": 6
          },
          "indices": 7,
          "material": 1,
          "mode": 4
        }
      ]
    },
    {
      "name": "Laptop_Keyboard_Black Keys.001_0",
      "primitives": [
        {
          "attributes": {
            "NORMAL": 9,
            "POSITION": 8,
            "TEXCOORD_0": 10
          },
          "indices": 11,
          "material": 2,
          "mode": 4
        }
      ]
    },
    {
      "name": "Laptop_Keyboard_side slot_0",
      "primitives": [
        {
          "attributes": {
            "NORMAL": 13,
            "POSITION": 12,
            "TEXCOORD_0": 14
          },
          "indices": 15,
          "material": 3,
          "mode": 4
        }
      ]
    },
    {
      "name": "Laptop_Keyboard_Black Plastic ROUGH_0",
      "primitives": [
        {
          "attributes": {
            "NORMAL": 17,
            "POSITION": 16,
            "TEXCOORD_0": 18
          },
          "indices": 19,
          "material": 4,
          "mode": 4
        }
      ]
    },
    {
      "name": "Laptop_Screen_Material.002_0",
      "primitives": [
        {
          "attributes": {
            "NORMAL": 21,
            "POSITION": 20,
            "TEXCOORD_0": 22
          },
          "indices": 23,
          "material": 5,
          "mode": 4
        }
      ]
    },
    {
      "name": "Laptop_Screen_Black Keys_0",
      "primitives": [
        {
          "attributes": {
            "NORMAL": 25,
            "POSITION": 24,
            "TEXCOORD_0": 26
          },
          "indices": 27,
          "material": 1,
          "mode": 4
        }
      ]
    },
    {
      "name": "Laptop_Screen_Ecran_0",
      "primitives": [
        {
          "attributes": {
            "NORMAL": 29,
            "POSITION": 28,
            "TEXCOORD_0": 30
          },
          "indices": 31,
          "material": 6,
          "mode": 4
        }
      ]
    }
  ],
  "nodes": [
    {
      "children": [
        1
      ],
      "matrix": [
        1.0,
        0.0,
        0.0,
        0.0,
        0.0,
        2.220446049250313e-16,
        -1.0,
        0.0,
        0.0,
        1.0,
        2.220446049250313e-16,
        0.0,
        0.0,
        0.0,
        0.0,
        1.0
      ],
      "name": "Sketchfab_model"
    },
    {
      "children": [
        2
      ],
      "matrix": [
        1.0,
        0.0,
        0.0,
        0.0,
        0.0,
        0.0,
        1.0,
        0.0,
        0.0,
        -1.0,
        0.0,
        0.0,
        0.0,
        0.0,
        0.0,
        1.0
      ],
      "name": "8ea79401e36c4f0b802a3bc542278109.fbx"
    },
    {
      "children": [
        3
      ],
      "name": "RootNode"
    },
    {
      "children": [
        4,
        5,
        6,
        7,
        8,
        9
      ],
      "matrix": [
        100.0,
        0.0,
        0.0,
        0.0,
        -0.0,
        -1.629206793918314e-05,
        -99.99999999999868,
        0.0,
        0.0,
        99.99999999999868,
        -1.629206793918314e-05,
        0.0,
        -4.326653480529785,
        79.13837432861328,
        -0.24242401123046875,
        1.0
      ],
      "name": "Laptop_Keyboard"
    },
    {
      "mesh": 0,
      "name": "Laptop_Keyboard_Black Keys.002_0"
    },
    {
      "mesh": 1,
      "name": "Laptop_Keyboard_Black Keys_0"
    },
    {
      "mesh": 2,
      "name": "Laptop_Keyboard_Black Keys.001_0"
    },
    {
      "mesh": 3,
      "name": "Laptop_Keyboard_side slot_0"
    },
    {
      "mesh": 4,
      "name": "Laptop_Keyboard_Black Plastic ROUGH_0"
    },
    {
      "children": [
        10,
        11,
        12
      ],
      "matrix": [
        1.0,
        0.0,
        0.0,
        0.0,
        0.0,
        1.0,
        -2.646977960169688e-23,
        0.0,
        0.0,
        2.646977960169688e-23,
        1.0,
        0.0,
        0.016262292861938477,
        7.3068952560424805,
        0.32724058628082275,
        1.0
      ],
      "name": "Laptop_Screen"
    },
    {
      "mesh": 5,
      "name": "Laptop_Screen_Material.002_0"
    },
    {
      "mesh": 6,
      "name": "Laptop_Screen_Black Keys_0"
    },
    {
      "mesh": 7,
      "name": "Laptop_Screen_Ecran_0"
    }
  ],
  "samplers": [
    {
      "magFilter": 9729,
      "minFilter": 9987,
      "wrapS": 10497,
      "wrapT": 10497
    }
  ],
  "scene": 0,
  "scenes": [
    {
      "name": "Sketchfab_Scene",
      "nodes": [
        0
      ]
    }
  ],
  "textures": [
    {
      "sampler": 0,
      "source": 0
    },
    {
      "sampler": 0,
      "source": 1
    }
  ]
}
